<svg width="24" height="25" viewBox="0 0 24 25" fill="none" xmlns="http://www.w3.org/2000/svg">
<path d="M9.87849 13.2071C9.48797 13.5976 8.8548 13.5976 8.46428 13.2071C8.07376 12.8166 8.07376 12.1834 8.46428 11.7929L14.1211 6.13602C14.5117 5.74549 15.1448 5.74549 15.5353 6.13602C15.9259 6.52654 15.9259 7.15971 15.5353 7.55023L9.87849 13.2071Z" fill="white"/>
<path d="M8.46428 13.2071C8.07376 12.8166 8.07376 12.1834 8.46428 11.7929C8.8548 11.4023 9.48812 11.4025 9.87864 11.793L15.5355 17.4499C15.926 17.8404 15.926 18.4736 15.5355 18.8641C15.145 19.2546 14.5118 19.2546 14.1213 18.8641L8.46428 13.2071Z" fill="white"/>
</svg>
