<svg width="24" height="25" viewBox="0 0 24 25" fill="none" xmlns="http://www.w3.org/2000/svg">
<path d="M5.63518 7.55045C5.24465 7.15993 5.24465 6.52676 5.63518 6.13624C6.0257 5.74572 6.65887 5.74572 7.04939 6.13624L18.3631 17.4499C18.7536 17.8405 18.7536 18.4736 18.3631 18.8642C17.9726 19.2547 17.3394 19.2547 16.9489 18.8642L5.63518 7.55045Z" fill="#080808"/>
<path d="M16.9501 6.13616C17.3407 5.74563 17.9738 5.74563 18.3644 6.13615C18.7549 6.52668 18.7549 7.15984 18.3644 7.55037L7.05065 18.8641C6.66013 19.2546 6.02696 19.2546 5.63644 18.8641C5.24592 18.4736 5.24592 17.8404 5.63644 17.4499L16.9501 6.13616Z" fill="#080808"/>
</svg>
