<svg width="24" height="24" viewBox="0 0 24 24" fill="none" xmlns="http://www.w3.org/2000/svg">
<path d="M5.63542 7.05045C5.2449 6.65993 5.2449 6.02676 5.63542 5.63624C6.02595 5.24572 6.65911 5.24572 7.04964 5.63624L18.3633 16.9499C18.7539 17.3405 18.7539 17.9736 18.3633 18.3642C17.9728 18.7547 17.3397 18.7547 16.9491 18.3642L5.63542 7.05045Z" fill="white"/>
<path d="M16.9504 5.63616C17.3409 5.24563 17.9741 5.24563 18.3646 5.63615C18.7551 6.02668 18.7551 6.65984 18.3646 7.05037L7.0509 18.3641C6.66037 18.7546 6.02721 18.7546 5.63668 18.3641C5.24616 17.9736 5.24616 17.3404 5.63668 16.9499L16.9504 5.63616Z" fill="white"/>
</svg>
