<svg width="14" height="12" viewBox="0 0 14 12" fill="none" xmlns="http://www.w3.org/2000/svg">
<path d="M0.5 4.21387C0.5 2.28087 2.067 0.713867 4 0.713867C5.27316 0.713867 6.38756 1.39365 7 2.41007C7.61244 1.39365 8.72684 0.713867 10 0.713867C11.933 0.713867 13.5 2.28087 13.5 4.21387C13.5 5.16752 13.1186 6.03209 12.5 6.66335C12.4134 6.75173 12.3221 6.83553 12.2266 6.91437L7.81164 10.9686C7.35263 11.3901 6.64737 11.3901 6.18836 10.9686L1.77336 6.91438C1.67785 6.83554 1.5866 6.75173 1.49999 6.66335C0.881404 6.03209 0.5 5.16752 0.5 4.21387Z" fill="white"/>
</svg>
