<svg width="24" height="25" viewBox="0 0 24 25" fill="none" xmlns="http://www.w3.org/2000/svg">
<path fill-rule="evenodd" clip-rule="evenodd" d="M16.364 15.4495C18.4191 12.7077 18.2 8.80123 15.7066 6.30782C12.9729 3.57415 8.54076 3.57415 5.80709 6.30782C3.07342 9.04149 3.07342 13.4736 5.80709 16.2073C8.30086 18.7011 12.2081 18.9199 14.9499 16.8638L18.5356 20.4495C18.9261 20.84 19.5593 20.84 19.9498 20.4495C20.3403 20.059 20.3403 19.4258 19.9498 19.0353L16.364 15.4495ZM14.2924 7.72203C16.245 9.67466 16.245 12.8405 14.2924 14.7931C12.3397 16.7457 9.17392 16.7457 7.2213 14.7931C5.26868 12.8405 5.26868 9.67466 7.2213 7.72203C9.17392 5.76941 12.3397 5.76941 14.2924 7.72203Z" fill="white"/>
</svg>
