<svg width="430" height="500" viewBox="0 0 430 500" fill="none" xmlns="http://www.w3.org/2000/svg">
<g filter="url(#filter0_bi_223_104810)">
<circle cx="215" cy="250" r="250" fill="#C4C4C4" fill-opacity="0.02"/>
<circle cx="215" cy="250" r="250" fill="url(#paint0_linear_223_104810)" fill-opacity="0.01"/>
</g>
<g filter="url(#filter1_d_223_104810)">
<rect x="65" y="100" width="300" height="300" rx="150" fill="#26262E" fill-opacity="0.6" shape-rendering="crispEdges"/>
<path d="M149.142 244.976L147.72 244.742V243.626H151.806L157.17 251.726L158.178 253.778V244.976L156.63 244.742V243.626H161.094V244.742L159.708 244.976V257H157.53L151.932 248.486L150.672 246.11V255.74L152.49 255.92V257H147.72V255.92L149.142 255.74V244.976ZM162.259 252.014C162.259 250.886 162.481 249.926 162.925 249.134C163.381 248.342 163.987 247.748 164.743 247.352C165.499 246.944 166.321 246.74 167.209 246.74C168.721 246.74 169.885 247.208 170.701 248.144C171.529 249.068 171.943 250.328 171.943 251.924C171.943 253.064 171.715 254.036 171.259 254.84C170.815 255.632 170.215 256.226 169.459 256.622C168.715 257.006 167.893 257.198 166.993 257.198C165.493 257.198 164.329 256.736 163.501 255.812C162.673 254.876 162.259 253.61 162.259 252.014ZM167.137 256.028C168.493 256.028 169.171 254.72 169.171 252.104C169.171 250.736 169.009 249.698 168.685 248.99C168.361 248.27 167.833 247.91 167.101 247.91C165.709 247.91 165.013 249.218 165.013 251.834C165.013 253.202 165.181 254.246 165.517 254.966C165.865 255.674 166.405 256.028 167.137 256.028ZM179.849 255.524C179.945 255.668 180.161 255.806 180.497 255.938C180.845 256.058 181.193 256.118 181.541 256.118C182.105 256.118 182.525 256.004 182.801 255.776C183.089 255.536 183.233 255.224 183.233 254.84C183.233 254.444 183.059 254.126 182.711 253.886C182.363 253.634 181.775 253.328 180.947 252.968L180.443 252.752C179.615 252.404 178.997 251.984 178.589 251.492C178.181 251 177.977 250.364 177.977 249.584C177.977 249.044 178.139 248.564 178.463 248.144C178.787 247.712 179.243 247.376 179.831 247.136C180.419 246.896 181.097 246.776 181.865 246.776C182.429 246.776 182.909 246.812 183.305 246.884C183.713 246.956 184.139 247.052 184.583 247.172C184.823 247.256 185.003 247.304 185.123 247.316V249.674H183.701L183.287 248.306C183.215 248.186 183.053 248.078 182.801 247.982C182.549 247.886 182.261 247.838 181.937 247.838C181.445 247.838 181.049 247.946 180.749 248.162C180.461 248.366 180.317 248.654 180.317 249.026C180.317 249.362 180.419 249.644 180.623 249.872C180.827 250.088 181.049 250.256 181.289 250.376C181.529 250.496 181.973 250.694 182.621 250.97C183.269 251.246 183.803 251.51 184.223 251.762C184.655 252.014 185.009 252.344 185.285 252.752C185.573 253.148 185.717 253.634 185.717 254.21C185.717 255.098 185.369 255.818 184.673 256.37C183.977 256.922 182.975 257.198 181.667 257.198C181.055 257.198 180.503 257.144 180.011 257.036C179.531 256.928 178.973 256.784 178.337 256.604L177.941 256.478V254.102H179.435L179.849 255.524ZM190.209 257.162C189.453 257.162 188.895 256.988 188.535 256.64C188.175 256.292 187.995 255.74 187.995 254.984V248.378H186.825V247.442C186.921 247.406 187.095 247.346 187.347 247.262C187.599 247.166 187.791 247.088 187.923 247.028C188.127 246.872 188.301 246.602 188.445 246.218C188.553 245.966 188.751 245.342 189.039 244.346H190.479L190.551 246.992H193.305V248.378H190.569V253.436C190.569 254.108 190.587 254.582 190.623 254.858C190.659 255.134 190.737 255.314 190.857 255.398C190.977 255.47 191.187 255.506 191.487 255.506C191.787 255.506 192.099 255.476 192.423 255.416C192.747 255.344 193.017 255.26 193.233 255.164L193.575 256.172C193.239 256.424 192.747 256.652 192.099 256.856C191.451 257.06 190.821 257.162 190.209 257.162ZM194.533 252.014C194.533 250.886 194.755 249.926 195.199 249.134C195.655 248.342 196.261 247.748 197.017 247.352C197.773 246.944 198.595 246.74 199.483 246.74C200.995 246.74 202.159 247.208 202.975 248.144C203.803 249.068 204.217 250.328 204.217 251.924C204.217 253.064 203.989 254.036 203.533 254.84C203.089 255.632 202.489 256.226 201.733 256.622C200.989 257.006 200.167 257.198 199.267 257.198C197.767 257.198 196.603 256.736 195.775 255.812C194.947 254.876 194.533 253.61 194.533 252.014ZM199.411 256.028C200.767 256.028 201.445 254.72 201.445 252.104C201.445 250.736 201.283 249.698 200.959 248.99C200.635 248.27 200.107 247.91 199.375 247.91C197.983 247.91 197.287 249.218 197.287 251.834C197.287 253.202 197.455 254.246 197.791 254.966C198.139 255.674 198.679 256.028 199.411 256.028ZM205.853 255.938L207.041 255.794V248.702L205.889 248.378V247.136L208.679 246.758H208.733L209.183 247.118V247.514L209.129 248.972H209.183C209.267 248.732 209.465 248.438 209.777 248.09C210.089 247.73 210.479 247.418 210.947 247.154C211.427 246.878 211.943 246.74 212.495 246.74C212.759 246.74 212.987 246.776 213.179 246.848V249.548C212.819 249.296 212.381 249.17 211.865 249.17C210.989 249.17 210.227 249.404 209.579 249.872V255.776L211.667 255.938V257H205.853V255.938ZM215.928 261.482C215.712 261.482 215.478 261.464 215.226 261.428C214.986 261.392 214.812 261.35 214.704 261.302V259.376C214.788 259.424 214.956 259.472 215.208 259.52C215.46 259.568 215.688 259.592 215.892 259.592C216.492 259.592 216.984 259.394 217.368 258.998C217.764 258.602 218.13 257.936 218.466 257H217.494L214.11 248.27L213.3 248.036V246.992H218.25V248.036L216.936 248.252L218.538 253.238L219.186 255.362L219.744 253.238L221.22 248.252L220.086 248.036V246.992H223.992V248.036L223.11 248.252C222.45 250.268 221.796 252.212 221.148 254.084C220.5 255.956 220.122 257.006 220.014 257.234C219.63 258.242 219.264 259.046 218.916 259.646C218.568 260.246 218.154 260.702 217.674 261.014C217.194 261.326 216.612 261.482 215.928 261.482ZM230.157 248.396H228.645V247.388L230.157 247.028V246.236C230.157 245.456 230.361 244.742 230.769 244.094C231.189 243.446 231.747 242.936 232.443 242.564C233.139 242.18 233.877 241.988 234.657 241.988C235.065 241.988 235.449 242.048 235.809 242.168V244.472C235.689 244.352 235.449 244.232 235.089 244.112C234.741 243.992 234.375 243.932 233.991 243.932C233.523 243.932 233.187 244.052 232.983 244.292C232.791 244.52 232.695 244.916 232.695 245.48V247.01H234.981V248.396H232.695V255.776L234.585 255.92V257H228.735V255.92L230.157 255.758V248.396ZM236.263 252.014C236.263 250.886 236.485 249.926 236.929 249.134C237.385 248.342 237.991 247.748 238.747 247.352C239.503 246.944 240.325 246.74 241.213 246.74C242.725 246.74 243.889 247.208 244.705 248.144C245.533 249.068 245.947 250.328 245.947 251.924C245.947 253.064 245.719 254.036 245.263 254.84C244.819 255.632 244.219 256.226 243.463 256.622C242.719 257.006 241.897 257.198 240.997 257.198C239.497 257.198 238.333 256.736 237.505 255.812C236.677 254.876 236.263 253.61 236.263 252.014ZM241.141 256.028C242.497 256.028 243.175 254.72 243.175 252.104C243.175 250.736 243.013 249.698 242.689 248.99C242.365 248.27 241.837 247.91 241.105 247.91C239.713 247.91 239.017 249.218 239.017 251.834C239.017 253.202 239.185 254.246 239.521 254.966C239.869 255.674 240.409 256.028 241.141 256.028ZM255.701 257.18C255.305 257.18 255.017 257.096 254.837 256.928C254.657 256.76 254.567 256.508 254.567 256.172V255.686C254.243 256.082 253.787 256.436 253.199 256.748C252.611 257.048 252.023 257.198 251.435 257.198C250.283 257.198 249.461 256.904 248.969 256.316C248.477 255.716 248.231 254.732 248.231 253.364V248.288L247.331 248.036V247.01L250.391 246.776H250.409L250.769 247.028V253.364C250.769 254.24 250.877 254.852 251.093 255.2C251.309 255.548 251.711 255.722 252.299 255.722C253.007 255.722 253.667 255.446 254.279 254.894V248.288L253.073 248.018V247.01L256.331 246.776H256.367L256.799 247.028V255.884H257.807L257.789 256.91C257.741 256.922 257.519 256.97 257.123 257.054C256.727 257.138 256.253 257.18 255.701 257.18ZM260.088 248.702L258.936 248.378V247.136L261.924 246.758H261.978L262.428 247.118V247.82L262.41 248.252C262.83 247.856 263.376 247.514 264.048 247.226C264.72 246.938 265.398 246.794 266.082 246.794C266.814 246.794 267.384 246.932 267.792 247.208C268.212 247.472 268.512 247.892 268.692 248.468C268.872 249.044 268.962 249.824 268.962 250.808V255.776L270.06 255.92V257H265.416V255.92L266.388 255.776V250.808C266.388 250.184 266.346 249.698 266.262 249.35C266.178 248.99 266.022 248.732 265.794 248.576C265.578 248.408 265.266 248.324 264.858 248.324C264.174 248.324 263.442 248.618 262.662 249.206V255.758L263.742 255.92V257H259.044V255.92L260.088 255.758V248.702ZM275.093 257.198C274.349 257.198 273.683 257.024 273.095 256.676C272.507 256.316 272.039 255.764 271.691 255.02C271.343 254.276 271.169 253.346 271.169 252.23C271.169 251.222 271.373 250.304 271.781 249.476C272.201 248.636 272.813 247.97 273.617 247.478C274.421 246.986 275.387 246.74 276.515 246.74C276.971 246.74 277.403 246.788 277.811 246.884V243.842L276.047 243.59V242.6L279.755 242.24H279.809L280.313 242.618V255.902H281.285V256.928C280.421 257.108 279.707 257.198 279.143 257.198C278.759 257.198 278.483 257.132 278.315 257C278.159 256.88 278.081 256.634 278.081 256.262V255.758C277.769 256.178 277.343 256.526 276.803 256.802C276.263 257.066 275.693 257.198 275.093 257.198ZM276.029 255.704C276.425 255.704 276.773 255.626 277.073 255.47C277.385 255.302 277.631 255.104 277.811 254.876V248.324C277.727 248.204 277.547 248.102 277.271 248.018C277.007 247.934 276.719 247.892 276.407 247.892C275.639 247.892 275.021 248.228 274.553 248.9C274.097 249.56 273.869 250.622 273.869 252.086C273.869 253.31 274.067 254.222 274.463 254.822C274.859 255.41 275.381 255.704 276.029 255.704Z" fill="#8A8A92"/>
<rect x="66.3636" y="101.364" width="297.273" height="297.273" rx="148.636" stroke="white" stroke-width="2.72727" stroke-dasharray="8.18 13.64" shape-rendering="crispEdges"/>
</g>
<defs>
<filter id="filter0_bi_223_104810" x="-71.1571" y="-15.4959" width="551.653" height="548.038" filterUnits="userSpaceOnUse" color-interpolation-filters="sRGB">
<feFlood flood-opacity="0" result="BackgroundImageFix"/>
<feGaussianBlur in="BackgroundImageFix" stdDeviation="7.74794"/>
<feComposite in2="SourceAlpha" operator="in" result="effect1_backgroundBlur_223_104810"/>
<feBlend mode="normal" in="SourceGraphic" in2="effect1_backgroundBlur_223_104810" result="shape"/>
<feColorMatrix in="SourceAlpha" type="matrix" values="0 0 0 0 0 0 0 0 0 0 0 0 0 0 0 0 0 0 127 0" result="hardAlpha"/>
<feOffset dx="-36.1571" dy="32.5413"/>
<feGaussianBlur stdDeviation="29.9587"/>
<feComposite in2="hardAlpha" operator="arithmetic" k2="-1" k3="1"/>
<feColorMatrix type="matrix" values="0 0 0 0 1 0 0 0 0 1 0 0 0 0 1 0 0 0 0.15 0"/>
<feBlend mode="normal" in2="shape" result="effect2_innerShadow_223_104810"/>
</filter>
<filter id="filter1_d_223_104810" x="21.3636" y="61.8182" width="387.273" height="387.273" filterUnits="userSpaceOnUse" color-interpolation-filters="sRGB">
<feFlood flood-opacity="0" result="BackgroundImageFix"/>
<feColorMatrix in="SourceAlpha" type="matrix" values="0 0 0 0 0 0 0 0 0 0 0 0 0 0 0 0 0 0 127 0" result="hardAlpha"/>
<feOffset dy="5.45455"/>
<feGaussianBlur stdDeviation="21.8182"/>
<feComposite in2="hardAlpha" operator="out"/>
<feColorMatrix type="matrix" values="0 0 0 0 0.0980392 0 0 0 0 0.0980392 0 0 0 0 0.121569 0 0 0 0.8 0"/>
<feBlend mode="normal" in2="BackgroundImageFix" result="effect1_dropShadow_223_104810"/>
<feBlend mode="normal" in="SourceGraphic" in2="effect1_dropShadow_223_104810" result="shape"/>
</filter>
<linearGradient id="paint0_linear_223_104810" x1="-106.53" y1="1041.67" x2="352.455" y2="1009.23" gradientUnits="userSpaceOnUse">
<stop stop-color="white" stop-opacity="0"/>
<stop offset="0.549357" stop-color="white"/>
<stop offset="1" stop-color="white" stop-opacity="0"/>
</linearGradient>
</defs>
</svg>
